<svg width="48" height="48" viewBox="0 0 48 48" fill="none" xmlns="http://www.w3.org/2000/svg">
<path d="M1.06504 0.0756239C1.63507 0.345635 2.20509 0.630647 2.76011 0.900658C5.40022 2.17571 8.02533 3.46576 10.6654 4.74082C14.3256 6.51089 17.9707 8.29596 21.6309 10.066C25.051 11.7311 28.4712 13.3962 31.8913 15.0462C34.5014 16.3213 37.1115 17.6563 39.8116 18.7364C37.8916 18.3464 35.8665 18.9314 34.0964 19.6814C32.5663 20.3415 31.0963 21.1515 29.5812 21.8565C27.9311 22.6215 26.0261 22.6215 24.361 21.8865L9.33038 15.2112C3.66015 12.7061 0 7.02091 0 0.750652C0 0.195629 0.570023 -0.164386 1.06504 0.0756239Z" fill="url(#paint0_linear_62_114)"/>
<path d="M46.9519 25.7567L6.45026 45.5425L1.66507 47.8826C0.900037 48.2576 0 47.6876 0 46.8325V45.1975C0 40.6223 2.5051 36.4521 6.45026 34.322C6.72028 34.172 6.99029 34.052 7.2603 33.917L29.1012 24.0016L36.0015 20.9115C36.5115 20.6865 37.0365 20.5065 37.5765 20.3715C38.6266 20.1014 39.7066 20.0114 40.7867 20.1014C41.9717 20.2064 43.1268 20.5215 44.2218 21.0465L46.9519 22.3665C48.362 23.0566 48.362 25.0816 46.9519 25.7567Z" fill="url(#paint1_linear_62_114)"/>
<defs>
<linearGradient id="paint0_linear_62_114" x1="19.9058" y1="22.4415" x2="19.9058" y2="0.000620639" gradientUnits="userSpaceOnUse">
<stop stop-color="#3547FF"/>
<stop offset="1" stop-color="#8903FF"/>
</linearGradient>
<linearGradient id="paint1_linear_62_114" x1="-1.41006" y1="45.0025" x2="45.0919" y2="20.2514" gradientUnits="userSpaceOnUse">
<stop stop-color="#8903FF"/>
<stop offset="1" stop-color="#3547FF"/>
</linearGradient>
</defs>
</svg>
