<svg width="14" height="12" viewBox="0 0 14 12" fill="none" xmlns="http://www.w3.org/2000/svg">
<path d="M0.817177 12C0.694955 12 0.583844 11.9694 0.483844 11.9083C0.383844 11.8472 0.306066 11.7667 0.250511 11.6667C0.194955 11.5667 0.1644 11.4583 0.158844 11.3417C0.153289 11.225 0.183844 11.1111 0.250511 11L6.41718 0.333333C6.48384 0.222222 6.56996 0.138889 6.67551 0.0833333C6.78107 0.0277778 6.8894 0 7.00051 0C7.11162 0 7.21996 0.0277778 7.32551 0.0833333C7.43107 0.138889 7.51718 0.222222 7.58384 0.333333L13.7505 11C13.8172 11.1111 13.8477 11.225 13.8422 11.3417C13.8366 11.4583 13.8061 11.5667 13.7505 11.6667C13.695 11.7667 13.6172 11.8472 13.5172 11.9083C13.4172 11.9694 13.3061 12 13.1838 12H0.817177ZM7.00051 10C7.1894 10 7.34773 9.93611 7.47551 9.80833C7.60329 9.68056 7.66718 9.52222 7.66718 9.33333C7.66718 9.14444 7.60329 8.98611 7.47551 8.85833C7.34773 8.73056 7.1894 8.66667 7.00051 8.66667C6.81162 8.66667 6.65329 8.73056 6.52551 8.85833C6.39773 8.98611 6.33384 9.14444 6.33384 9.33333C6.33384 9.52222 6.39773 9.68056 6.52551 9.80833C6.65329 9.93611 6.81162 10 7.00051 10ZM7.00051 8C7.1894 8 7.34773 7.93611 7.47551 7.80833C7.60329 7.68056 7.66718 7.52222 7.66718 7.33333V5.33333C7.66718 5.14444 7.60329 4.98611 7.47551 4.85833C7.34773 4.73056 7.1894 4.66667 7.00051 4.66667C6.81162 4.66667 6.65329 4.73056 6.52551 4.85833C6.39773 4.98611 6.33384 5.14444 6.33384 5.33333V7.33333C6.33384 7.52222 6.39773 7.68056 6.52551 7.80833C6.65329 7.93611 6.81162 8 7.00051 8Z" fill="#FF002E"/>
</svg>
