<svg width="11" height="14" viewBox="0 0 11 14" fill="none" xmlns="http://www.w3.org/2000/svg">
<path d="M0 12.175V1.825C0 1.54166 0.1 1.30416 0.3 1.1125C0.5 0.92083 0.733333 0.824997 1 0.824997C1.08333 0.824997 1.17083 0.837497 1.2625 0.862497C1.35417 0.887497 1.44167 0.924997 1.525 0.974997L9.675 6.15C9.825 6.25 9.9375 6.375 10.0125 6.525C10.0875 6.675 10.125 6.83333 10.125 7C10.125 7.16666 10.0875 7.325 10.0125 7.475C9.9375 7.625 9.825 7.75 9.675 7.85L1.525 13.025C1.44167 13.075 1.35417 13.1125 1.2625 13.1375C1.17083 13.1625 1.08333 13.175 1 13.175C0.733333 13.175 0.5 13.0792 0.3 12.8875C0.1 12.6958 0 12.4583 0 12.175Z" fill="white"/>
</svg>
